<svg width="95" height="40" viewBox="0 0 95 40" fill="none" xmlns="http://www.w3.org/2000/svg">
<path d="M45.1839 31.8706H41.1104V9.12492H45.1839V31.8706Z" fill="white"/>
<path d="M52.7425 31.8706H48.6689V16.8047H52.7425V31.8706Z" fill="white"/>
<path d="M71.0004 31.8706L64.879 23.8975L70.5096 16.8047H65.6998L60.3011 23.6857V9.12492H56.2275V31.8706H60.3011V24.1355L65.6998 31.8706H71.0004Z" fill="white"/>
<path d="M30.73 27.982C28.7107 27.982 27.0736 26.3504 27.0736 24.3378C27.0736 22.3253 28.7107 20.6937 30.73 20.6937C32.7493 20.6937 34.3864 22.3253 34.3864 24.3378C34.3864 26.3504 32.7493 27.982 30.73 27.982ZM30.73 16.6337C29.4071 16.6337 28.1624 16.9655 27.0736 17.5492V9.1251H23V24.3378C23 28.5927 26.4608 32.042 30.73 32.042C34.9991 32.042 38.4599 28.5927 38.4599 24.3378C38.4599 20.083 34.9991 16.6337 30.73 16.6337Z" fill="white"/>
<mask id="mask0_711_481" style="mask-type:luminance" maskUnits="userSpaceOnUse" x="31" y="8" width="8" height="8">
<path d="M38.336 11.62C38.336 13.6193 36.7099 15.2397 34.7041 15.2397C32.6983 15.2397 31.0723 13.6193 31.0723 11.62C31.0723 9.62092 32.6983 8.00025 34.7041 8.00025C36.7099 8.00025 38.336 9.62092 38.336 11.62Z" fill="white"/>
</mask>
<g mask="url(#mask0_711_481)">
<path d="M38.336 11.62C38.336 13.6193 36.7099 15.2397 34.7041 15.2397C32.6983 15.2397 31.0723 13.6193 31.0723 11.62C31.0723 9.62092 32.6983 8.00025 34.7041 8.00025C36.7099 8.00025 38.336 9.62092 38.336 11.62Z" fill="url(#paint0_radial_711_481)"/>
</g>
<defs>
<radialGradient id="paint0_radial_711_481" cx="0" cy="0" r="1" gradientTransform="matrix(9.12141 7.62826 -7.65377 9.09101 31.7512 7.80458)" gradientUnits="userSpaceOnUse">
<stop stop-color="white"/>
<stop offset="0.494975" stop-color="white"/>
<stop offset="1" stop-color="white"/>
</radialGradient>
</defs>
</svg>
